<svg width="41" height="41" viewBox="0 0 41 41" fill="none" xmlns="http://www.w3.org/2000/svg">
<g clip-path="url(#clip0_1_208)">
<g clip-path="url(#clip1_1_208)">
<path d="M12.9831 20.5H15.7164C16.0943 20.5 16.3997 20.1939 16.3997 19.8167C16.3997 19.4395 16.0943 19.1334 15.7164 19.1334H12.9831C12.6052 19.1334 12.2998 19.4395 12.2998 19.8167C12.2998 20.1939 12.6052 20.5 12.9831 20.5Z" fill="#FFB606"/>
<path d="M10.2501 16.4C10.628 16.4 10.9334 16.0939 10.9334 15.7167C10.9334 15.3395 10.628 15.0334 10.2501 15.0334H7.5168C7.13891 15.0334 6.8335 15.3395 6.8335 15.7167V21.1834C6.8335 21.5606 7.13891 21.8667 7.5168 21.8667H10.2501C10.628 21.8667 10.9334 21.5606 10.9334 21.1834C10.9334 20.8062 10.628 20.5001 10.2501 20.5001H8.20011V19.1334H10.2501C10.628 19.1334 10.9334 18.8272 10.9334 18.4501C10.9334 18.0729 10.628 17.7668 10.2501 17.7668H8.20011V16.4H10.2501Z" fill="#FFB606"/>
<path d="M20.5 32.8C20.1221 32.8 19.8167 33.1061 19.8167 33.4833V35.2504L15.2336 39.8335C14.9664 40.1007 14.9664 40.5326 15.2336 40.7997C15.3668 40.933 15.5418 40.9999 15.7167 40.9999C15.8916 40.9999 16.0665 40.933 16.1998 40.7997L20.9831 36.0164C21.1109 35.888 21.1833 35.7144 21.1833 35.5333V33.4833C21.1833 33.1061 20.8779 32.8 20.5 32.8Z" fill="#FFB606"/>
<path d="M23.0333 37.1002C22.7661 36.833 22.3343 36.833 22.0671 37.1002C21.7999 37.3673 21.7999 37.7993 22.0671 38.0664L24.8004 40.7998C24.9337 40.9331 25.1086 41 25.2835 41C25.4585 41 25.6334 40.9331 25.7666 40.7998C26.0339 40.5327 26.0339 40.1007 25.7666 39.8336L23.0333 37.1002Z" fill="#FFB606"/>
<path d="M40.3167 1.36669H21.1833V0.683307C21.1833 0.306139 20.8779 0 20.5 0C20.1221 0 19.8167 0.306139 19.8167 0.683307V1.36661H0.683307C0.305418 1.36669 0 1.67283 0 2.05V4.78331C0 5.16047 0.305418 5.46661 0.683307 5.46661H36.2166C36.5945 5.46661 36.8999 5.16047 36.8999 4.78331C36.8999 4.40614 36.5945 4.1 36.2166 4.1H1.36661V2.73331H39.6333V4.1H38.95C38.5721 4.1 38.2667 4.40614 38.2667 4.78331V28.0166C38.2667 29.1468 37.3469 30.0666 36.2167 30.0666H4.78331C3.65308 30.0666 2.73331 29.1468 2.73331 28.0166V7.51661C2.73331 7.13945 2.42789 6.83331 2.05 6.83331C1.67211 6.83331 1.36669 7.13945 1.36669 7.51661V28.0166C1.36669 29.9005 2.89939 31.4333 4.78339 31.4333H36.2167C38.1006 31.4333 39.6334 29.9006 39.6334 28.0166V5.46661H40.3167C40.6946 5.46661 41 5.16047 41 4.78331V2.05C41 1.67283 40.6946 1.36669 40.3167 1.36669Z" fill="#FFB606"/>
<path d="M34.1669 15.7167C34.1669 14.5865 33.2471 13.6667 32.1169 13.6667C30.9867 13.6667 30.0669 14.5865 30.0669 15.7167C30.0669 16.0939 30.3723 16.4 30.7502 16.4C31.1281 16.4 31.4335 16.0939 31.4335 15.7167C31.4335 15.3402 31.7396 15.0334 32.1168 15.0334C32.494 15.0334 32.8001 15.3402 32.8001 15.7147C32.7837 15.9265 32.2507 16.4964 31.7068 16.8784L30.3401 17.9034C30.1051 18.0804 30.0087 18.3872 30.1023 18.666C30.1945 18.9454 30.4556 19.1334 30.7501 19.1334H33.4834C33.8613 19.1334 34.1667 18.8272 34.1667 18.4501C34.1667 18.0729 33.8613 17.7668 33.4834 17.7668H32.8015C33.3243 17.3532 34.1669 16.5565 34.1669 15.7167Z" fill="#FFB606"/>
<path d="M26.6502 16.4C27.0273 16.4 27.3335 16.7068 27.3335 17.0833C27.3335 17.4605 27.6389 17.7666 28.0168 17.7666C28.3947 17.7666 28.7001 17.4605 28.7001 17.0833C28.7001 15.9531 27.7803 15.0333 26.6501 15.0333C25.5199 15.0333 24.6001 15.9531 24.6001 17.0833V19.8166C24.6001 20.9468 25.5199 21.8666 26.6501 21.8666C27.7803 21.8666 28.7001 20.9468 28.7001 19.8166C28.7001 19.4394 28.3947 19.1333 28.0168 19.1333C27.6389 19.1333 27.3335 19.4394 27.3335 19.8166C27.3335 20.1931 27.0273 20.4999 26.6502 20.4999C26.273 20.4999 25.9669 20.1931 25.9669 19.8166V17.0833C25.9669 16.7068 26.273 16.4 26.6502 16.4Z" fill="#FFB606"/>
<path d="M22.5499 21.8667C22.9278 21.8667 23.2332 21.5606 23.2332 21.1834V15.7167C23.2332 15.4222 23.0453 15.1618 22.7658 15.0682C22.4863 14.976 22.1802 15.0723 22.0032 15.3067L20.4999 17.3115L18.9966 15.3066C18.8203 15.0716 18.5141 14.9752 18.234 15.0681C17.9545 15.1618 17.7666 15.4221 17.7666 15.7166V21.1833C17.7666 21.5605 18.072 21.8666 18.4499 21.8666C18.8278 21.8666 19.1332 21.5605 19.1332 21.1833V17.7666L19.9532 18.8599C20.2108 19.2043 20.7889 19.2043 21.0465 18.8599L21.8665 17.7666V21.1833C21.8666 21.5606 22.172 21.8667 22.5499 21.8667Z" fill="#FFB606"/>
<path d="M12.9831 17.7667H15.7164C16.0943 17.7667 16.3997 17.4606 16.3997 17.0834C16.3997 16.7062 16.0943 16.4001 15.7164 16.4001H12.9831C12.6052 16.4001 12.2998 16.7062 12.2998 17.0834C12.2998 17.4606 12.6052 17.7667 12.9831 17.7667Z" fill="#FFB606"/>
</g>
</g>
<defs>
<clipPath id="clip0_1_208">
<rect width="41" height="41" fill="white"/>
</clipPath>
<clipPath id="clip1_1_208">
<rect width="41" height="41" fill="white"/>
</clipPath>
</defs>
</svg>
