<svg width="62" height="62" viewBox="0 0 62 62" fill="none" xmlns="http://www.w3.org/2000/svg">
<g clip-path="url(#clip0_1_408)">
<path d="M30.9999 26.8668C32.303 26.8668 33.4375 26.377 34.0999 26.0132C34.7623 26.377 35.8968 26.8668 37.1999 26.8668C39.1239 26.8668 41.2743 25.7736 42.1929 24.3403C42.2839 24.2029 44.4331 20.918 44.4331 15.5001C44.4331 11.5114 41.1884 8.26685 37.1999 8.26685C36.0312 8.26685 34.9658 8.69564 34.0999 9.15143C33.2339 8.69576 32.1686 8.26685 30.9999 8.26685C27.0112 8.26685 23.7666 11.5115 23.7666 15.5001C23.7666 21.6226 25.671 24.0014 26.0854 24.4447C27.0194 25.6206 28.9373 26.8668 30.9999 26.8668ZM30.9999 10.3335C31.9216 10.3335 32.864 10.8109 33.5822 11.2273C33.9025 11.4133 34.2973 11.4133 34.6175 11.2273C35.3358 10.8109 36.2781 10.3335 37.1999 10.3335C40.0487 10.3335 42.3666 12.6513 42.3666 15.5002C42.3666 20.2556 40.4911 23.1675 40.4632 23.2089C39.9807 23.9612 38.5226 24.8002 37.2 24.8002C35.8681 24.8002 34.7241 23.9767 34.7168 23.9715C34.534 23.8351 34.317 23.7668 34.1 23.7668C33.883 23.7668 33.666 23.835 33.4831 23.9715C33.4718 23.9797 32.332 24.8002 31 24.8002C29.6836 24.8002 28.3092 23.9416 27.6841 23.1345C27.6634 23.1076 27.6283 23.0683 27.6045 23.0435C27.587 23.0249 25.8334 21.1029 25.8334 15.5002C25.8332 12.6513 28.1509 10.3335 30.9999 10.3335Z" fill="#FFB606"/>
<path d="M33.2147 6.73229C33.408 7.05464 33.75 7.23349 34.1014 7.23349C34.2822 7.23349 34.4661 7.1859 34.6325 7.08576C35.1212 6.79235 35.2804 6.15782 34.9859 5.668L31.8859 0.5013C31.5923 0.0125667 30.9579 -0.14655 30.4681 0.147949C29.9794 0.441359 29.8202 1.07589 30.1147 1.56571L33.2147 6.73229Z" fill="#FFB606"/>
<path d="M36.4401 6.58351C36.5124 6.60724 37.1717 6.81916 38.0438 6.81916H38.0449C39.2808 6.81916 40.3555 6.39751 41.1501 5.60192C43.0411 3.71093 42.169 1.0057 42.1308 0.890903C42.0275 0.582962 41.7856 0.341138 41.4777 0.237845C41.4043 0.214111 40.7451 0.00219727 39.8719 0.00219727C38.636 0.00219727 37.5624 0.422755 36.7667 1.21846C34.8757 3.11055 35.7489 5.81469 35.7861 5.92948C35.8892 6.23839 36.1311 6.48022 36.4401 6.58351ZM38.2277 2.67957C38.6327 2.27452 39.1855 2.0689 39.8718 2.0689C40.0174 2.0689 40.1549 2.07822 40.2768 2.09263C40.3399 2.64954 40.311 3.51863 39.6889 4.14069C39.2838 4.54575 38.73 4.75245 38.0448 4.75245C37.8991 4.75245 37.7617 4.74216 37.6398 4.72872C37.5767 4.17072 37.6056 3.30163 38.2277 2.67957Z" fill="#FFB606"/>
<path d="M58.8998 28.9336H9.29993C7.59082 28.9336 6.19994 30.3245 6.19994 32.0336V36.1669C6.19994 36.7372 6.66288 37.2002 7.23323 37.2002C7.80358 37.2002 8.26652 36.7372 8.26652 36.1669V32.0336C8.26652 31.4642 8.73043 31.0003 9.29981 31.0003H12.3998V36.167C12.3998 36.7373 12.8627 37.2003 13.4331 37.2003C14.0034 37.2003 14.4664 36.7373 14.4664 36.167V31.0003H41.333V36.167C41.333 36.7373 41.796 37.2003 42.3663 37.2003C42.9367 37.2003 43.3996 36.7373 43.3996 36.167V31.0003H53.7329V36.167C53.7329 36.7373 54.1958 37.2003 54.7662 37.2003C55.3365 37.2003 55.7995 36.7373 55.7995 36.167V31.0003H58.8995C59.4689 31.0003 59.9328 31.4642 59.9328 32.0336V39.2669H56.8328C56.2624 39.2669 55.7995 39.7298 55.7995 40.3002V49.6001H54.7662C54.1958 49.6001 53.7329 50.0631 53.7329 50.6334C53.7329 51.2038 54.1958 51.6667 54.7662 51.6667H57.8662V58.9C57.8662 59.4694 57.4023 59.9333 56.8329 59.9333H24.7999V54.7666C24.7999 54.1962 24.337 53.7333 23.7666 53.7333C23.1963 53.7333 22.7333 54.1962 22.7333 54.7666V59.9333H20.6666V54.7666C20.6666 54.1962 20.2037 53.7333 19.6333 53.7333C19.063 53.7333 18.6 54.1962 18.6 54.7666V59.9333H16.5333V54.7666C16.5333 54.1962 16.0704 53.7333 15.5 53.7333C14.9297 53.7333 14.4667 54.1962 14.4667 54.7666V59.9333H5.16677C4.59739 59.9333 4.13348 59.4694 4.13348 58.9V54.7667C4.13348 54.1964 3.67054 53.7334 3.10019 53.7334C2.52984 53.7334 2.06689 54.1964 2.06689 54.7667V58.9C2.06689 60.6091 3.45777 62 5.16689 62H56.8335C58.5426 62 59.9335 60.6091 59.9335 58.9V51.6667C59.9335 50.3244 58.8692 49.6 57.8668 49.6V41.3333H59.9335C60.9358 41.3333 62.0002 40.6089 62.0002 39.2666V32.0333C61.9998 30.3245 60.6089 28.9336 58.8998 28.9336Z" fill="#FFB606"/>
<path d="M40.2998 51.6667C40.8701 51.6667 41.3331 51.2038 41.3331 50.6334C41.3331 50.0631 40.8701 49.6001 40.2998 49.6001H28.9331V41.3334H43.3998V56.8334C43.3998 57.2147 43.6095 57.565 43.9454 57.7447C44.2803 57.9235 44.6894 57.9039 45.0067 57.693L47.5332 56.0087L50.0597 57.693C50.2333 57.8088 50.4328 57.8667 50.6332 57.8667C50.8005 57.8667 50.968 57.8264 51.121 57.7447C51.4567 57.5649 51.6666 57.2146 51.6666 56.8334V41.3334H52.6999C53.2702 41.3334 53.7332 40.8705 53.7332 40.3001C53.7332 39.7298 53.2702 39.2668 52.6999 39.2668H3.09999C1.36194 39.2668 0 40.6288 0 42.3668V48.5668C0 50.2759 1.39088 51.6668 3.09999 51.6668H40.2998V51.6667ZM45.4664 41.3334H49.5997V54.9021L48.1065 53.9069C47.7593 53.6755 47.3066 53.6755 46.9595 53.9069L45.4663 54.9021V41.3334H45.4664ZM12.3999 41.3334H26.8665V49.6001H12.3999V41.3334ZM2.06646 48.5667V42.3667C2.06646 41.7777 2.51075 41.3334 3.09975 41.3334H10.333V49.6001H3.09987C2.5202 49.6001 2.06646 49.1464 2.06646 48.5667Z" fill="#FFB606"/>
<path d="M21.7003 43.4001C21.1299 43.4001 20.667 43.8631 20.667 44.4334V46.5001C20.667 47.0705 21.1299 47.5334 21.7003 47.5334C22.2706 47.5334 22.7336 47.0705 22.7336 46.5001V44.4334C22.7336 43.8631 22.2706 43.4001 21.7003 43.4001Z" fill="#FFB606"/>
<path d="M17.5665 43.4001C16.9961 43.4001 16.5332 43.8631 16.5332 44.4334V46.5001C16.5332 47.0705 16.9961 47.5334 17.5665 47.5334C18.1368 47.5334 18.5998 47.0705 18.5998 46.5001V44.4334C18.5999 43.8631 18.137 43.4001 17.5665 43.4001Z" fill="#FFB606"/>
</g>
<defs>
<clipPath id="clip0_1_408">
<rect width="62" height="62" fill="white"/>
</clipPath>
</defs>
</svg>
