<svg width="24" height="24" viewBox="0 0 24 24" fill="none" xmlns="http://www.w3.org/2000/svg">
<g clip-path="url(#clip0_1_365)">
<path d="M1.20952 20.6326C1.20952 20.6512 1.20952 20.6698 1.22813 20.707C1.22813 20.7256 1.24673 20.7628 1.24673 20.7814C1.24673 20.8 1.26534 20.8186 1.26534 20.8558C1.28394 20.8744 1.28394 20.8931 1.30255 20.9303C1.32115 20.9489 1.32115 20.9675 1.33976 20.9861C1.35836 21.0047 1.37696 21.0233 1.37696 21.0419C1.39557 21.0605 1.41417 21.0791 1.43278 21.0977L1.45138 21.1163C1.45138 21.1163 1.46999 21.1163 1.46999 21.1349C1.5258 21.1907 1.60022 21.2279 1.67464 21.2465C1.69324 21.2465 1.69324 21.2465 1.71185 21.2651C1.78627 21.2838 1.86069 21.3024 1.9351 21.3024H22.0095C22.0839 21.3024 22.1584 21.2838 22.2328 21.2651C22.2514 21.2651 22.2514 21.2651 22.27 21.2465C22.3444 21.2093 22.4188 21.1721 22.4746 21.1349C22.4746 21.1349 22.4932 21.1349 22.4932 21.1163L22.5118 21.0977C22.5305 21.0791 22.5491 21.0605 22.5677 21.0419C22.5863 21.0233 22.6049 21.0047 22.6049 20.9861C22.6235 20.9675 22.6235 20.9489 22.6421 20.9303C22.6607 20.9117 22.6607 20.8931 22.6793 20.8558C22.6979 20.8372 22.6979 20.8186 22.6979 20.7814C22.6979 20.7628 22.7165 20.7256 22.7165 20.707C22.7165 20.6884 22.7351 20.6698 22.7351 20.6326C22.7351 20.614 22.7351 20.5768 22.7351 20.5582C22.7351 20.5396 22.7351 20.5396 22.7351 20.521V3.4791C22.7351 3.05119 22.4002 2.71631 21.9723 2.71631H1.95371C1.5258 2.71631 1.19092 3.05119 1.19092 3.4791V20.521C1.19092 20.5396 1.19092 20.5396 1.19092 20.5582C1.20952 20.5768 1.20952 20.5954 1.20952 20.6326ZM3.59092 19.7582L9.22813 13.0233L11.5723 14.6605C11.7025 14.7535 11.8514 14.7907 12.0002 14.7907C12.1491 14.7907 12.2979 14.7535 12.4281 14.6605L14.7723 13.0233L20.4095 19.7582H3.59092ZM21.2839 18.4186L16.0188 12.1489L21.2653 8.48375V18.4186H21.2839ZM2.7351 4.24189H21.2839V6.64189L12.0188 13.0977L2.7351 6.64189V4.24189ZM2.7351 8.48375L7.98162 12.1489L2.7351 18.4186V8.48375Z" fill="#FFB606"/>
</g>
<defs>
<clipPath id="clip0_1_365">
<rect width="24" height="24" fill="white"/>
</clipPath>
</defs>
</svg>
