<svg width="41" height="41" viewBox="0 0 41 41" fill="none" xmlns="http://www.w3.org/2000/svg">
<g clip-path="url(#clip0_1_107)">
<path d="M30.0652 25.2833C30.0652 24.9061 29.7591 24.6 29.3819 24.6H25.2819C24.9048 24.6 24.5986 24.9061 24.5986 25.2833C24.5986 25.6605 24.9048 25.9666 25.2819 25.9666H29.3819C29.7591 25.9667 30.0652 25.6606 30.0652 25.2833Z" fill="#FFB606"/>
<path d="M27.3319 7.51669V4.09999C27.3319 3.72283 27.0258 3.41669 26.6486 3.41669C26.2715 3.41669 25.9653 3.72283 25.9653 4.09999V7.51669C25.9653 9.4006 27.498 10.9334 29.382 10.9334H35.532V23.9167C35.532 24.2939 35.8382 24.6 36.2153 24.6C36.5925 24.6 36.8986 24.2939 36.8986 23.9167V10.25C36.8986 9.87283 36.5925 9.56669 36.2153 9.56669H29.382C28.2517 9.56669 27.3319 8.64691 27.3319 7.51669Z" fill="#FFB606"/>
<path d="M29.3819 16.4H23.9152C23.5381 16.4 23.2319 16.7061 23.2319 17.0833C23.2319 17.4605 23.5381 17.7666 23.9152 17.7666H29.3819C29.7591 17.7666 30.0652 17.4605 30.0652 17.0833C30.0653 16.7061 29.7592 16.4 29.3819 16.4Z" fill="#FFB606"/>
<path d="M21.8651 17.0833C21.8651 16.7061 21.5589 16.4 21.1817 16.4H17.0817C16.7046 16.4 16.3984 16.7061 16.3984 17.0833C16.3984 17.4605 16.7046 17.7666 17.0817 17.7666H21.1817C21.5589 17.7667 21.8651 17.4605 21.8651 17.0833Z" fill="#FFB606"/>
<path d="M17.0817 20.5C16.7046 20.5 16.3984 20.8061 16.3984 21.1833C16.3984 21.5605 16.7046 21.8666 17.0817 21.8666H18.4484C18.8256 21.8666 19.1317 21.5605 19.1317 21.1833C19.1317 20.8061 18.8256 20.5 18.4484 20.5H17.0817Z" fill="#FFB606"/>
<path d="M17.0817 13.6667H23.9151C24.2922 13.6667 24.5984 13.3606 24.5984 12.9834C24.5984 12.6062 24.2922 12.3001 23.9151 12.3001H17.0817C16.7046 12.3001 16.3984 12.6062 16.3984 12.9834C16.3984 13.3606 16.7046 13.6667 17.0817 13.6667Z" fill="#FFB606"/>
<path d="M21.1818 21.8667H28.0151C28.3923 21.8667 28.6985 21.5606 28.6985 21.1834C28.6985 20.8062 28.3923 20.5001 28.0151 20.5001H21.1818C20.8047 20.5001 20.4985 20.8062 20.4985 21.1834C20.4985 21.5606 20.8047 21.8667 21.1818 21.8667Z" fill="#FFB606"/>
<path d="M25.2819 28.7C24.9048 28.7 24.5986 29.0062 24.5986 29.3833C24.5986 29.7605 24.9048 30.0666 25.2819 30.0666H26.6486C27.0258 30.0666 27.3319 29.7605 27.3319 29.3833C27.3319 29.0062 27.0258 28.7 26.6486 28.7H25.2819Z" fill="#FFB606"/>
<path d="M22.5484 24.6H17.0817C16.7046 24.6 16.3984 24.9061 16.3984 25.2833C16.3984 25.6605 16.7046 25.9666 17.0817 25.9666H22.5484C22.9256 25.9666 23.2317 25.6605 23.2317 25.2833C23.2317 24.9061 22.9256 24.6 22.5484 24.6Z" fill="#FFB606"/>
<path d="M22.5484 28.7H17.0817C16.7046 28.7 16.3984 29.0062 16.3984 29.3833C16.3984 29.7605 16.7046 30.0666 17.0817 30.0666H22.5484C22.9256 30.0666 23.2317 29.7605 23.2317 29.3833C23.2317 29.0062 22.9256 28.7 22.5484 28.7Z" fill="#FFB606"/>
<path d="M38.8181 28.1472L37.4514 26.7805C36.4011 25.7302 34.8007 25.7323 33.7519 26.7805L24.7988 35.7336C24.671 35.8614 24.5986 36.0356 24.5986 36.2167V40.3167C24.5986 40.6939 24.9048 41 25.2819 41H29.3819C29.563 41 29.7372 40.9276 29.8651 40.7998L38.8181 31.8468C39.9067 30.7582 39.9067 29.2365 38.8181 28.1472ZM32.8683 29.5966L33.9521 30.6803L28.0152 36.6172L26.9315 35.5334L32.8683 29.5966ZM25.9653 39.6333V36.4995L29.0991 39.6333H25.9653ZM30.0653 38.6671L28.9815 37.5833L34.9184 31.6465L36.0022 32.7303L30.0653 38.6671ZM37.8519 30.8805L36.9683 31.7641L33.8345 28.6303L34.7181 27.7468C35.2579 27.2076 35.9427 27.2049 36.4852 27.7468L37.8519 29.1135C38.4047 29.667 38.4047 30.3277 37.8519 30.8805Z" fill="#FFB606"/>
<path d="M22.5485 39.6333H4.78185C3.65162 39.6333 2.73185 38.7135 2.73185 37.5833V3.41669C2.73185 2.28647 3.65162 1.36669 4.78185 1.36669H26.3656L32.9987 7.9998C33.2659 8.26703 33.6978 8.26703 33.965 7.9998C34.2322 7.73266 34.2322 7.30072 33.965 7.03358L27.1317 0.200195C27.0038 0.07175 26.8296 0 26.6485 0H4.78185C2.89793 0 1.36523 1.5327 1.36523 3.41669V37.5834C1.36523 39.4673 2.89793 41.0001 4.78193 41.0001H22.5486C22.9258 41.0001 23.2319 40.6939 23.2319 40.3168C23.2319 39.9396 22.9257 39.6333 22.5485 39.6333Z" fill="#FFB606"/>
<path d="M22.5484 32.8H17.0817C16.7046 32.8 16.3984 33.1061 16.3984 33.4833C16.3984 33.8605 16.7046 34.1666 17.0817 34.1666H22.5484C22.9256 34.1666 23.2317 33.8605 23.2317 33.4833C23.2317 33.1061 22.9256 32.8 22.5484 32.8Z" fill="#FFB606"/>
<path d="M13.6653 12.9833C13.6653 12.6061 13.3592 12.3 12.982 12.3H8.88204C8.50487 12.3 8.19873 12.6061 8.19873 12.9833V17.0833C8.19873 17.4605 8.50487 17.7666 8.88204 17.7666H12.982C13.3592 17.7666 13.6653 17.4605 13.6653 17.0833V12.9833ZM12.2987 16.4H9.56534V13.6667H12.2987V16.4Z" fill="#FFB606"/>
<path d="M8.88204 34.1667H12.982C13.3592 34.1667 13.6653 33.8605 13.6653 33.4834V29.3834C13.6653 29.0062 13.3592 28.7001 12.982 28.7001H8.88204C8.50487 28.7001 8.19873 29.0062 8.19873 29.3834V33.4834C8.19873 33.8605 8.50487 34.1667 8.88204 34.1667ZM9.56542 30.0667H12.2987V32.8H9.56542V30.0667Z" fill="#FFB606"/>
<path d="M9.76532 25.7664C9.89377 25.8949 10.068 25.9666 10.2484 25.9666C10.271 25.9666 10.2929 25.966 10.3161 25.9632C10.5197 25.9434 10.7035 25.8327 10.817 25.6625L13.5503 21.5625C13.7594 21.2482 13.6747 20.8238 13.361 20.6147C13.046 20.4049 12.623 20.4903 12.4132 20.804L10.1425 24.2104L9.36485 23.4335C9.09771 23.1663 8.66577 23.1663 8.39863 23.4335C8.13149 23.7007 8.13141 24.1326 8.39863 24.3997L9.76532 25.7664Z" fill="#FFB606"/>
</g>
<defs>
<clipPath id="clip0_1_107">
<rect width="41" height="41" fill="white"/>
</clipPath>
</defs>
</svg>
