<svg width="62" height="62" viewBox="0 0 62 62" fill="none" xmlns="http://www.w3.org/2000/svg">
<g clip-path="url(#clip0_1_381)">
<path d="M7.9714 20.6243C8.51911 20.7845 9.09261 20.4693 9.25173 19.9206C12.3125 9.4085 22.1053 2.06671 33.067 2.06671C34.8216 2.06671 36.5659 2.24956 38.2647 2.61236C38.2275 4.09927 38.8692 5.11924 39.2825 5.77436C39.3972 5.95624 39.5533 6.20424 39.5718 6.23827C39.5718 9.94386 38.8143 10.5473 38.8226 10.5493C37.1475 10.5493 34.3989 12.0456 33.3655 13.9748C32.7311 15.158 32.7827 16.4104 33.5091 17.5016C34.0072 18.2487 34.436 19.0794 34.8514 19.8834C35.7297 21.5842 36.7042 23.4711 38.2345 23.4711C38.558 23.4711 38.9072 23.3864 39.2854 23.1973C40.4903 22.5949 41.3542 20.8816 42.1891 19.2262C42.557 18.4966 43.0974 17.4261 43.4177 17.0861C44.4665 17.2287 44.9791 18.1773 45.6725 19.6798C46.1829 20.7855 46.711 21.9273 47.7484 22.4461C49.4947 23.3193 55.237 22.4048 58.4103 21.0572C58.8847 20.8557 59.1378 20.3349 59.0035 19.8369C56.8345 11.8181 50.9435 5.14806 43.2431 1.99526C42.7151 1.77826 42.1105 2.03147 41.8946 2.55944C41.6787 3.08741 41.9318 3.69094 42.4599 3.90685C49.281 6.70096 54.5644 12.4825 56.7499 19.4854C53.5341 20.619 49.407 20.96 48.6723 20.5973C48.2839 20.4031 47.8932 19.5588 47.5491 18.8137C46.8288 17.2534 45.842 15.1165 43.3228 15.0048C42.0208 14.9263 41.2871 16.4247 40.3436 18.2961C39.7898 19.3934 38.9538 21.0519 38.2873 21.3796C37.904 21.2897 37.1424 19.8152 36.6877 18.9347C36.2671 18.1205 35.7908 17.1976 35.2286 16.3555C34.9238 15.8988 34.9114 15.4648 35.1873 14.9502C35.8972 13.6255 38.027 12.6159 38.8226 12.6159C40.6908 12.6159 41.6384 10.4707 41.6384 6.23814C41.6384 5.63679 41.3295 5.14697 41.0318 4.67264C40.5937 3.97926 40.1421 3.26118 40.4098 2.03559C40.5285 1.49103 40.1938 0.949496 39.6534 0.813145C37.5134 0.273793 35.2969 0 33.067 0C21.1919 0 10.5827 7.95465 7.26773 19.344C7.10752 19.8917 7.4237 20.4652 7.9714 20.6243Z" fill="#FFB606"/>
<path d="M45.463 27.404C45.1644 27.4888 44.7561 27.6066 44.6476 27.6148C43.2196 27.6148 42.3144 28.7205 41.6541 29.5275C41.402 29.8354 40.9463 30.3882 40.6559 30.3966C40.1888 30.163 39.6981 30.0453 39.1969 30.0453C37.9785 30.0453 36.9236 30.7697 36.6879 31.7699C36.5215 32.4726 36.7665 33.4346 37.9496 34.0267C39.6277 34.8658 41.3627 35.7328 42.1346 36.5047C42.6657 37.0358 43.5843 37.3406 44.6559 37.3406C46.2834 37.3406 48.4472 36.5501 49.1901 34.3202C49.4835 33.4419 50.1853 32.7702 50.8641 32.1212C51.6515 31.3658 52.3966 30.6539 52.4068 29.6319C52.4141 29.0284 52.1465 28.4518 51.6132 27.9176C50.8868 27.1922 49.8979 26.8232 48.6723 26.8232C47.4965 26.8232 46.3206 27.1592 45.463 27.404ZM50.3403 29.6039C50.2917 29.8075 49.7771 30.3003 49.4351 30.6279C48.6549 31.3739 47.6846 32.303 47.23 33.667C46.7196 35.1963 44.9959 35.2738 44.6559 35.2738C44.0534 35.2738 43.6753 35.1147 43.5967 35.0444C42.586 34.0338 40.7829 33.1317 38.8733 32.178C38.8692 32.1759 38.866 32.1749 38.8619 32.1728C39.0561 32.0932 39.4158 32.088 39.732 32.2451C40.0657 32.4124 40.4088 32.4972 40.7498 32.4972C41.8936 32.4972 42.6159 31.6148 43.2525 30.8367C43.7186 30.2693 44.1991 29.6814 44.6475 29.6814C45.0143 29.6814 45.4412 29.5595 46.0302 29.391C46.8124 29.1679 47.7858 28.8898 48.6724 28.8898C49.3389 28.8898 49.8226 29.05 50.1511 29.3786C50.2947 29.5234 50.3341 29.6039 50.3403 29.6039Z" fill="#FFB606"/>
<path d="M59.6772 23.1488C59.5987 22.5826 59.0696 22.1889 58.5127 22.2664C57.9474 22.345 57.5517 22.8668 57.6303 23.432C57.7873 24.5676 57.8669 25.724 57.8669 26.8668C57.8669 40.4428 46.9032 51.5046 33.3645 51.6648C29.69 49.3181 26.2459 46.4433 27.7804 42.8639C30.5353 36.4335 27.9716 34.0372 26.8762 33.0121L26.6706 32.8168C26.3575 32.5047 26.0041 32.2918 25.693 32.1049C24.9367 31.6513 24.7331 31.5293 25.1391 30.311C25.4078 29.5018 25.7653 29.1248 26.1776 28.6876C27.1334 27.677 27.864 26.6716 27.864 23.7493C27.864 22.0484 27.0012 20.6917 25.4966 20.0272C23.7905 19.2729 21.512 19.5395 20.3073 20.6328C19.555 21.3169 19.3018 22.248 19.6139 23.1851C20.3506 25.3913 18.6673 28.5802 15.5219 30.9392C14.689 31.5633 14.441 31.2771 14.2922 31.1066C13.3694 30.0433 13.4408 27.0187 14.1981 26.2623C14.7055 25.755 14.8563 25.1071 14.6011 24.5295C13.7641 22.6312 8.42481 22.778 7.36572 22.8276C6.86246 22.8514 6.44916 23.2338 6.38716 23.7339C6.2559 24.8023 6.2002 25.7396 6.2002 26.867C6.2002 39.2567 14.5898 49.9816 26.6013 52.9493C27.1532 53.0868 27.7153 52.7478 27.8516 52.194C27.9891 51.6401 27.6501 51.08 27.0963 50.9437C16.0096 48.2039 8.2669 38.3026 8.2669 26.8667C8.2669 26.1496 8.29173 25.5162 8.34646 24.8704C10.0948 24.8683 11.5798 25.0708 12.3372 25.3023C11.152 27.153 11.2821 30.7914 12.7309 32.4613C13.7694 33.6579 15.2761 33.7074 16.762 32.5925C20.7321 29.6154 22.621 25.665 21.5743 22.5319C21.5412 22.4296 21.5081 22.3336 21.6983 22.161C22.2418 21.6671 23.6255 21.4583 24.6608 21.9171C25.4255 22.255 25.7975 22.8544 25.7975 23.7493C25.7975 26.0816 25.3273 26.5796 24.6763 27.2678C24.1938 27.7793 23.5924 28.4148 23.178 29.6579C22.2491 32.449 23.7392 33.3438 24.6298 33.8781C24.8603 34.0155 25.0773 34.1457 25.2095 34.2779C25.2849 34.3533 25.3707 34.434 25.4648 34.5218C26.3741 35.3711 28.0646 36.9532 25.8812 42.0486C23.4053 47.826 29.7893 51.8539 32.5152 53.5744C32.6805 53.6777 32.8717 53.7336 33.067 53.7336C47.8809 53.7336 59.9337 41.6807 59.9337 26.8668C59.9335 25.6288 59.8478 24.3784 59.6772 23.1488Z" fill="#FFB606"/>
<path d="M50.3349 50.0847C45.317 53.8233 39.3454 55.8001 33.0668 55.8001C17.1132 55.8001 4.13348 42.8214 4.13348 26.8668C4.13348 26.2964 3.67054 25.8335 3.10019 25.8335C2.52984 25.8335 2.06689 26.2964 2.06689 26.8668C2.06689 43.6141 15.4176 57.2922 32.0336 57.841V60.9668C32.0336 61.5371 32.4965 62.0001 33.0669 62.0001C33.6372 62.0001 34.1002 61.5371 34.1002 60.9668V57.8255C40.4459 57.6199 46.4692 55.5429 51.5698 51.7422C52.0275 51.4012 52.1216 50.7543 51.7806 50.2955C51.4395 49.8388 50.7937 49.7437 50.3349 50.0847Z" fill="#FFB606"/>
<path d="M33.8576 41.8677C32.5679 41.8677 31.0552 43.3516 30.5034 44.6835C30.0725 45.724 30.2006 46.6944 30.8558 47.3495C31.4726 47.9663 32.3882 48.3208 33.3678 48.3208C34.3475 48.3208 35.263 47.9663 35.8809 47.3495C36.567 46.6634 36.7345 45.6548 36.3521 44.5109C36.0948 43.738 35.5844 42.9206 34.9892 42.3243C34.6935 42.0299 34.2916 41.8677 33.8576 41.8677ZM34.4197 45.8874C33.9608 46.3462 32.7684 46.3337 32.322 45.8988C32.3076 45.8543 32.3085 45.596 32.5823 45.1434C32.9388 44.5555 33.4421 44.14 33.7149 43.9923C34.0083 44.3405 34.2626 44.7766 34.3917 45.1641C34.5065 45.5061 34.5168 45.7912 34.4197 45.8874Z" fill="#FFB606"/>
</g>
<defs>
<clipPath id="clip0_1_381">
<rect width="62" height="62" fill="white"/>
</clipPath>
</defs>
</svg>
