<svg width="24" height="24" viewBox="0 0 24 24" fill="none" xmlns="http://www.w3.org/2000/svg">
<g clip-path="url(#clip0_1_357)">
<g clip-path="url(#clip1_1_357)">
<path d="M6.86503 21.2651L16.9115 22.7907C16.9488 22.7907 16.986 22.7907 17.0232 22.7907C17.2092 22.7907 17.3767 22.7349 17.5255 22.6046C17.6929 22.4558 17.786 22.2511 17.786 22.0279V3.47905C17.786 3.10696 17.5069 2.79068 17.1348 2.73487L7.08829 1.20929C6.86503 1.17208 6.64177 1.24649 6.47433 1.37673C6.30689 1.52556 6.21387 1.73022 6.21387 1.95347V20.5023C6.21387 20.893 6.49294 21.2093 6.86503 21.2651ZM7.73945 2.84649L16.2604 4.13022V21.1535L7.73945 19.8698V2.84649Z" fill="#FFB606"/>
</g>
</g>
<defs>
<clipPath id="clip0_1_357">
<rect width="24" height="24" fill="white"/>
</clipPath>
<clipPath id="clip1_1_357">
<rect width="24" height="24" fill="white"/>
</clipPath>
</defs>
</svg>
