<svg width="62" height="62" viewBox="0 0 62 62" fill="none" xmlns="http://www.w3.org/2000/svg">
<g clip-path="url(#clip0_1_437)">
<path d="M6.166 53.9762C6.30441 53.9762 6.44391 53.9483 6.57833 53.8894C9.87462 52.454 15.4412 51.707 23.1292 51.6676L23.8752 53.1618C24.1315 53.6724 24.7526 53.881 25.262 53.6237C25.7724 53.3684 25.9802 52.7484 25.7239 52.238L24.6915 50.1713C24.5158 49.821 24.1584 49.5999 23.7667 49.5999C15.3461 49.5999 9.45297 50.3831 5.75259 51.9941C5.22971 52.2225 4.99103 52.8311 5.21832 53.355C5.38797 53.7437 5.76724 53.9762 6.166 53.9762Z" fill="#FFB606"/>
<path d="M59.9333 55.8H57.8666V50.6333C57.8666 50.3595 57.757 50.096 57.5639 49.9028L51.3556 43.6955C51.5499 43.2914 51.6667 42.8441 51.6667 42.3666C51.6667 40.6575 50.2758 39.2666 48.5667 39.2666C46.8576 39.2666 45.4667 40.6575 45.4667 42.3666C45.4667 44.0757 46.8576 45.4666 48.5667 45.4666C49.0441 45.4666 49.4905 45.3499 49.8945 45.1566L55.8 51.061V55.8H2.06671C0.926852 55.8 0 56.7269 0 57.8667V60.9667C0 61.5371 0.462941 62 1.03329 62C1.60364 62 2.06659 61.5371 2.06659 60.9667V57.8667H59.9333V60.9667C59.9333 61.5371 60.3951 62 60.9666 62C61.538 62 61.9999 61.5371 61.9999 60.9667V57.8667C62 56.7269 61.0721 55.8 59.9333 55.8ZM48.5667 43.4C47.9964 43.4 47.5334 42.9361 47.5334 42.3667C47.5334 41.7973 47.9964 41.3334 48.5667 41.3334C49.1371 41.3334 49.6 41.7973 49.6 42.3667C49.6 42.9361 49.1371 43.4 48.5667 43.4Z" fill="#FFB606"/>
<path d="M14.7528 30.9091C15.5061 32.8703 17.9984 39.1943 19.8068 41.9068L19.9701 42.1537C21.2969 44.1656 23.5164 47.5332 30.9999 47.5332C38.4823 47.5332 40.7029 44.1656 42.0297 42.1537L42.193 41.9068C44.0013 39.1943 46.4926 32.8703 47.2471 30.9091C48.5966 30.5733 49.5999 29.3518 49.5999 27.9V23.7667C49.5999 22.4193 48.736 21.2701 47.5332 20.8434V15.5C47.5332 11.4204 45.3849 3.88432 37.4386 3.15679C37.4231 2.66903 37.2619 2.27644 37.0821 1.98606C36.0663 0.344148 33.2143 0 30.9999 0C12.6128 0 12.3999 17.391 12.3999 17.5667C12.3999 18.1371 12.8618 18.599 13.4311 18.599H13.4332C14.0026 18.599 14.4644 18.1381 14.4665 17.5678C14.4685 16.9354 14.701 2.06671 30.9998 2.06671C33.922 2.06671 35.0929 2.69906 35.3243 3.07312C35.3564 3.12579 35.4442 3.26735 35.2416 3.67144C35.0814 3.99173 35.0989 4.37209 35.287 4.67688C35.4761 4.98071 35.8078 5.16671 36.1664 5.16671C45.328 5.16671 45.4653 15.0794 45.4664 15.5V21.7C45.4664 22.2704 45.9282 22.7333 46.4997 22.7333C47.07 22.7333 47.533 23.1972 47.533 23.7666V27.9C47.533 28.4694 47.07 28.9333 46.4997 28.9333C46.0688 28.9333 45.6834 29.2009 45.5314 29.6039C45.5015 29.6855 42.45 37.7952 40.4732 40.7598L40.3038 41.016C39.0658 42.8947 37.3691 45.4666 30.9997 45.4666C24.6292 45.4666 22.9335 42.8947 21.6955 41.016L21.5261 40.7598C19.5494 37.7952 16.498 29.6855 16.467 29.6039C16.3161 29.2009 15.9306 28.9333 15.4998 28.9333C14.9304 28.9333 14.4665 28.4694 14.4665 27.9V23.7667C14.4665 23.4866 14.5781 23.2324 14.7599 23.0464C15.135 23.8886 15.9007 24.6461 17.1872 24.7742L20.7233 27.4258C20.9993 29.4386 22.7115 31 24.7999 31H26.8666C29.1461 31 30.9999 29.1462 30.9999 26.8667C30.9999 29.1462 32.8537 31 35.1332 31H37.1999C39.2872 31 41.0015 29.4386 41.2764 27.4247L45.0532 24.5934C45.51 24.2513 45.603 23.6035 45.2599 23.1467C44.9178 22.6899 44.27 22.596 43.8132 22.94L41.1793 24.9158C40.7856 23.6561 39.622 22.7334 38.2332 22.7334H34.0999C32.3908 22.7334 30.9999 24.1243 30.9999 25.8334C30.9999 24.1243 29.609 22.7334 27.8999 22.7334H23.7666C22.3789 22.7334 21.2153 23.6561 20.8206 24.9158L18.849 23.4371C19.6623 21.4717 20.399 18.5649 20.6078 16.5241C23.8648 16.4662 33.2878 16.0684 37.48 13.4519C38.4307 17.1223 41.4821 20.211 41.6361 20.364C42.04 20.7679 42.6932 20.7679 43.0972 20.364C43.5011 19.9599 43.5011 19.3068 43.0972 18.9029C43.0589 18.8646 39.2666 15.0299 39.2666 11.3667C39.2666 10.9028 38.9566 10.4946 38.5092 10.3706C38.0638 10.2466 37.5853 10.4367 37.3478 10.8345C35.8432 13.3403 26.0834 14.4667 19.6333 14.4667C19.063 14.4667 18.6 14.9296 18.6 15.5C18.6 17.1771 17.8075 20.5272 16.9643 22.5887C16.6347 22.3904 16.5417 22.0204 16.5334 21.7C16.5334 21.1296 16.0705 20.6667 15.5001 20.6667C13.791 20.6667 12.4001 22.0576 12.4001 23.7667V27.9C12.3999 29.3518 13.4033 30.5733 14.7528 30.9091ZM33.0666 25.8333C33.0666 25.2639 33.5296 24.8 34.0999 24.8H38.2332C38.8035 24.8 39.2665 25.2639 39.2665 25.8333V26.8666C39.2665 28.0063 38.3396 28.9333 37.1998 28.9333H35.1331C33.9933 28.9333 33.0664 28.0064 33.0664 26.8666V25.8333H33.0666ZM22.7332 25.8333C22.7332 25.2639 23.1971 24.8 23.7665 24.8H27.8999C28.4693 24.8 28.9332 25.2639 28.9332 25.8333V26.8666C28.9332 28.0063 28.0063 28.9333 26.8665 28.9333H24.7999C23.6602 28.9333 22.7332 28.0064 22.7332 26.8666V25.8333Z" fill="#FFB606"/>
<path d="M36.1658 37.2031C36.1669 36.6337 35.706 36.1698 35.1366 36.1666C35.117 36.1666 33.2694 36.1459 31.4621 35.2418C31.1717 35.0971 30.8286 35.0971 30.5382 35.2418C28.7309 36.146 26.8823 36.1666 26.8668 36.1666C26.2964 36.1666 25.8335 36.6296 25.8335 37.1999C25.8335 37.7703 26.2964 38.2332 26.8668 38.2332C26.9546 38.2332 28.9066 38.2218 31.0001 37.3064C33.0926 38.2218 35.0456 38.2332 35.1334 38.2332C35.7029 38.2332 36.1638 37.7723 36.1658 37.2031Z" fill="#FFB606"/>
<path d="M38.2304 49.6424C37.844 49.6444 37.4896 49.8614 37.3128 50.2065L36.2795 52.2298C36.0201 52.7381 36.2227 53.3613 36.7301 53.6206C36.8799 53.6971 37.0412 53.7333 37.1992 53.7333C37.5753 53.7333 37.938 53.5276 38.121 53.1701L38.866 51.7089C44.5142 51.7244 49.063 52.1471 52.3965 52.9655C52.9524 53.103 53.5104 52.7631 53.6458 52.2092C53.7821 51.6543 53.4443 51.0952 52.8894 50.9589C49.2705 50.0691 44.3623 49.6061 38.2304 49.6424Z" fill="#FFB606"/>
<path d="M29.9668 50.6334V52.7001C29.9668 53.2704 30.4297 53.7334 31.0001 53.7334C31.5704 53.7334 32.0334 53.2704 32.0334 52.7001V50.6334C32.0334 50.063 31.5704 49.6001 31.0001 49.6001C30.4297 49.6001 29.9668 50.063 29.9668 50.6334Z" fill="#FFB606"/>
<path d="M29.9669 39.2666C29.3965 39.2666 28.9336 39.7295 28.9336 40.2999C28.9336 40.8702 29.3965 41.3332 29.9669 41.3332H32.0336C32.605 41.3332 33.0669 40.8702 33.0669 40.2999C33.0669 39.7295 32.605 39.2666 32.0336 39.2666H29.9669Z" fill="#FFB606"/>
</g>
<defs>
<clipPath id="clip0_1_437">
<rect width="62" height="62" fill="white"/>
</clipPath>
</defs>
</svg>
