<svg width="41" height="41" viewBox="0 0 41 41" fill="none" xmlns="http://www.w3.org/2000/svg">
<g clip-path="url(#clip0_1_241)">
<g clip-path="url(#clip1_1_241)">
<path d="M28.8653 35.5537C28.499 35.4607 28.128 35.6849 28.0371 36.0505L27.3538 38.7838C27.2616 39.1507 27.485 39.5211 27.8512 39.6127C27.9066 39.6271 27.9626 39.6332 28.0173 39.6332C28.3235 39.6332 28.6016 39.4261 28.6795 39.1159L29.3628 36.3826C29.4543 36.0163 29.2316 35.6453 28.8653 35.5537Z" fill="#FFB606"/>
<path d="M20.5 21.8666C20.5888 21.8666 20.6777 21.8496 20.7611 21.8147L28.2778 18.7042C28.6262 18.5599 28.7916 18.1602 28.6475 17.8117C28.5032 17.4625 28.1021 17.2985 27.7544 17.4413L20.5 20.4439L1.36669 12.5268V12.2999C1.36669 11.9227 1.06055 11.6166 0.683387 11.6166C0.306219 11.6166 0 11.9227 0 12.2999V12.9832C0 13.26 0.166723 13.5094 0.422332 13.6146L20.239 21.8146C20.3223 21.8495 20.4112 21.8666 20.5 21.8666Z" fill="#FFB606"/>
<path d="M28.629 28.8674C28.4623 28.5291 28.0536 28.3897 27.714 28.5571C26.4164 29.1988 24.2488 29.945 21.1834 30.0468V23.9166C21.1834 23.5394 20.8773 23.2333 20.5001 23.2333C20.1229 23.2333 19.8168 23.5394 19.8168 23.9166V30.0407C11.3319 29.7701 8.59377 24.63 8.20011 23.7745V19.1333C8.20011 18.7561 7.89397 18.45 7.5168 18.45C7.13963 18.45 6.8335 18.7561 6.8335 19.1333V23.9166C6.8335 24.0034 6.84991 24.0895 6.88202 24.1708C7.00094 24.4667 9.90922 31.4332 20.5002 31.4332C24.2018 31.4332 26.7958 30.5353 28.3196 29.7823C28.6583 29.6149 28.7971 29.2056 28.629 28.8674Z" fill="#FFB606"/>
<path d="M30.7502 36.2166C30.3723 36.2166 30.0669 36.5228 30.0669 36.8999V38.9499C30.0669 39.3271 30.3723 39.6332 30.7502 39.6332C31.1281 39.6332 31.4335 39.3271 31.4335 38.9499V36.8999C31.4335 36.5228 31.1281 36.2166 30.7502 36.2166Z" fill="#FFB606"/>
<path d="M40.3167 11.6166C39.9388 11.6166 39.6334 11.9227 39.6334 12.2999V12.5254L31.4334 15.9004V14.6656L40.5777 10.8813C40.8333 10.776 41.0001 10.5266 41.0001 10.2498C41.0001 9.97309 40.8334 9.72436 40.5785 9.61842L20.7611 1.4185C20.5936 1.34947 20.4064 1.34947 20.239 1.4185L0.422332 9.6185C0.166723 9.72444 0 9.97317 0 10.2499C0 10.5267 0.166723 10.7761 0.422332 10.8813L20.239 19.0813C20.3224 19.1162 20.4112 19.1333 20.5001 19.1333C20.589 19.1333 20.6778 19.1162 20.7611 19.0813L27.9266 16.1164C28.2758 15.9729 28.4412 15.5731 28.297 15.2239C28.1527 14.8754 27.753 14.7107 27.4045 14.8542L20.5 17.7106L2.47025 10.2499L20.5 2.78928L38.5298 10.2499L30.6844 13.4964L23.1698 10.6907C23.2094 10.5485 23.2334 10.4023 23.2334 10.2499C23.2334 9.10056 22.0328 8.19992 20.5001 8.19992C18.9674 8.19992 17.7668 9.10056 17.7668 10.2499C17.7668 11.3993 18.9674 12.2999 20.5001 12.2999C21.1841 12.2999 21.7943 12.1133 22.2685 11.8127L30.0667 14.7244V16.9139V16.9146V31.5591C29.2734 31.8427 28.7 32.5936 28.7 33.4834C28.7 34.6136 29.6198 35.5334 30.75 35.5334C31.8802 35.5334 32.8 34.6136 32.8 33.4834C32.8 32.5937 32.2267 31.8427 31.4333 31.5591V27.6805C33.3951 26.1997 34.0983 24.2276 34.1291 24.1402C34.1536 24.0684 34.1666 23.9926 34.1666 23.9168V19.1335C34.1666 18.7563 33.8612 18.4502 33.4833 18.4502C33.1054 18.4502 32.8 18.7563 32.8 19.1335V23.7904C32.6818 24.0801 32.2711 24.9732 31.4333 25.8547V17.3785L40.577 13.6154C40.8333 13.5101 41 13.2601 41 12.9833V12.3C41 11.9227 40.6946 11.6166 40.3167 11.6166ZM20.5 10.9332C19.6657 10.9332 19.1333 10.5287 19.1333 10.2499C19.1333 9.97108 19.6656 9.56661 20.5 9.56661C21.3344 9.56661 21.8667 9.97116 21.8667 10.2499C21.8667 10.5287 21.3343 10.9332 20.5 10.9332ZM30.75 34.1666C30.3728 34.1666 30.0667 33.8598 30.0667 33.4833C30.0667 33.1068 30.3728 32.8 30.75 32.8C31.1272 32.8 31.4333 33.1068 31.4333 33.4833C31.4333 33.8597 31.1272 34.1666 30.75 34.1666Z" fill="#FFB606"/>
<path d="M33.4629 36.0505C33.3714 35.685 32.9996 35.4615 32.6347 35.5537C32.2685 35.6452 32.0457 36.0163 32.1373 36.3826L32.8206 39.1159C32.8985 39.4261 33.1766 39.6332 33.4828 39.6332C33.5374 39.6332 33.5934 39.6271 33.6488 39.6127C34.0151 39.5212 34.2379 39.1507 34.1463 38.7838L33.4629 36.0505Z" fill="#FFB606"/>
</g>
</g>
<defs>
<clipPath id="clip0_1_241">
<rect width="41" height="41" fill="white"/>
</clipPath>
<clipPath id="clip1_1_241">
<rect width="41" height="41" fill="white"/>
</clipPath>
</defs>
</svg>
