<svg width="29" height="29" viewBox="0 0 29 29" fill="none" xmlns="http://www.w3.org/2000/svg">
<g clip-path="url(#clip0_1_478)">
<g clip-path="url(#clip1_1_478)">
<g clip-path="url(#clip2_1_478)">
<path d="M27.8986 22.688L22.2163 17.0057C21.5379 16.3275 20.4345 16.3275 19.7561 17.0057L18.2784 18.4834C17.8155 18.9464 17.6691 19.6074 17.8382 20.1962L17.2807 20.7538C17.2805 20.7539 17.2804 20.754 17.2802 20.7542C16.8843 21.1506 14.4186 20.5423 11.438 17.5618C8.45792 14.5817 7.84948 12.1164 8.2454 11.7198C8.2454 11.7196 8.24552 11.7196 8.24552 11.7196L8.80354 11.1617C8.96106 11.2069 9.12362 11.23 9.28629 11.23C9.73177 11.23 10.1772 11.0605 10.5164 10.7214L11.994 9.24377C12.6723 8.56549 12.6723 7.46197 11.994 6.78364L6.31169 1.10122C5.98318 0.772707 5.54631 0.591797 5.08168 0.591797C4.61695 0.591797 4.18025 0.77282 3.85168 1.10122L2.37392 2.57898C1.91094 3.04196 1.76458 3.70307 1.93365 4.29185C1.93365 4.29185 1.46104 4.76899 1.43754 4.79912C-0.134408 6.54643 -0.429336 9.2974 0.612795 12.5865C1.63329 15.8069 3.83321 19.2184 6.80741 22.1924C9.7815 25.1665 13.193 27.3664 16.4134 28.3871C17.7071 28.797 18.9173 29.0001 20.0163 29.0001C21.8183 29.0001 23.3206 28.4536 24.3975 27.3768L24.7075 27.0667C24.8627 27.1113 25.0248 27.1354 25.1908 27.1354C25.6555 27.1354 26.0924 26.9544 26.4208 26.626L27.8986 25.1482C28.5768 24.47 28.5768 23.3664 27.8986 22.688ZM5.08168 2.33123L10.7641 8.0137L9.28725 9.49213C9.28725 9.49213 9.28697 9.49185 9.28646 9.49134L9.26522 9.4701L6.44525 6.65013L3.60399 3.80898L5.08168 2.33123ZM23.1675 26.1467C23.1674 26.1468 23.1674 26.1469 23.1673 26.147C21.9158 27.3982 19.7039 27.6049 16.939 26.7287C13.9794 25.7908 10.8181 23.7429 8.03759 20.9623C5.25693 18.1817 3.20903 15.0205 2.27123 12.0609C1.395 9.29587 1.60168 7.08389 2.85321 5.8323L2.85333 5.83219L3.01022 5.67529L7.42009 10.0851L7.01562 10.4896C7.01534 10.4899 7.01511 10.4902 7.01477 10.4905C5.33906 12.1683 7.35252 15.9364 10.2081 18.7919C12.3453 20.9292 14.9938 22.5948 16.8945 22.5948C17.5337 22.5948 18.0883 22.4064 18.5104 21.9843C18.5106 21.9841 18.5107 21.984 18.5108 21.9838L18.9149 21.5798L23.3247 25.9896L23.1675 26.1467ZM25.1909 25.3959L19.5085 19.7135L20.9861 18.2359L26.6686 23.9182C26.6686 23.9182 25.1914 25.3964 25.1909 25.3959Z" fill="white"/>
<path d="M22.023 6.97729C20.3686 5.32287 18.1691 4.41181 15.8297 4.41187C15.3494 4.41187 14.96 4.80127 14.96 5.28164C14.96 5.76201 15.3494 6.15141 15.8297 6.15141C17.7045 6.1513 19.4671 6.88151 20.793 8.2073C22.1188 9.53303 22.8488 11.2956 22.8488 13.1704C22.8488 13.6507 23.2382 14.0403 23.7185 14.0403C24.1988 14.0403 24.5883 13.6509 24.5883 13.1706C24.5884 10.8311 23.6772 8.6317 22.023 6.97729Z" fill="white"/>
<path d="M25.1425 3.85762C22.6547 1.36991 19.3472 -0.000113274 15.8292 7.02449e-09C15.3489 7.02449e-09 14.9595 0.389461 14.9595 0.869773C14.9595 1.35014 15.3489 1.73955 15.8292 1.73955C18.8826 1.73943 21.7532 2.92855 23.9124 5.08763C26.0714 7.24666 27.2605 10.1173 27.2604 13.1706C27.2604 13.651 27.6498 14.0404 28.1302 14.0404C28.6105 14.0404 28.9999 13.651 28.9999 13.1707C29.0001 9.65264 27.63 6.34528 25.1425 3.85762Z" fill="white"/>
<path d="M18.9031 10.0968C18.0701 9.26388 17.0076 8.82373 15.83 8.82373H15.8296C15.3493 8.82384 14.9598 9.21319 14.96 9.69362C14.9601 10.174 15.3495 10.5634 15.8298 10.5633C15.83 10.5633 15.83 10.5633 15.8301 10.5633C16.5463 10.5633 17.1665 10.8202 17.6732 11.3268C18.1727 11.8264 18.4367 12.4639 18.4366 13.1702C18.4365 13.6505 18.826 14.0399 19.3063 14.04H19.3064C19.7868 14.04 20.1761 13.6506 20.1762 13.1704C20.1762 11.9927 19.7361 10.9299 18.9031 10.0968Z" fill="white"/>
</g>
</g>
</g>
<defs>
<clipPath id="clip0_1_478">
<rect width="29" height="29" fill="white"/>
</clipPath>
<clipPath id="clip1_1_478">
<rect width="29" height="29" fill="white"/>
</clipPath>
<clipPath id="clip2_1_478">
<rect width="29" height="29" fill="white"/>
</clipPath>
</defs>
</svg>
