<svg width="24" height="24" viewBox="0 0 24 24" fill="none" xmlns="http://www.w3.org/2000/svg">
<g clip-path="url(#clip0_1_349)">
<path d="M12.0002 1.19067C7.256 1.19067 3.38623 5.06044 3.38623 9.82323C3.38623 10.4 3.44204 10.9767 3.55367 11.5349C3.55367 11.5721 3.57228 11.6093 3.57228 11.6651C4.52111 15.9256 11.2002 22.3256 11.4793 22.586C11.6281 22.7349 11.8141 22.7907 12.0002 22.7907C12.1862 22.7907 12.3723 22.7163 12.5211 22.586C12.8002 22.307 19.442 15.9256 20.3909 11.7581C20.3909 11.7209 20.4095 11.6837 20.4095 11.6465C20.5397 11.0511 20.5955 10.4372 20.5955 9.82323C20.6141 5.06044 16.7444 1.19067 12.0002 1.19067ZM18.9211 11.3674C18.9211 11.4046 18.9211 11.386 18.9211 11.4232C18.2141 14.5116 13.5816 19.386 12.0002 20.9674C10.4188 19.386 5.76763 14.5116 5.06065 11.3488C5.06065 11.3116 5.06065 11.293 5.04204 11.2558C4.94902 10.7721 4.89321 10.2883 4.89321 9.80463C4.89321 5.89765 8.0746 2.69765 11.9816 2.69765C15.8886 2.69765 19.0886 5.87905 19.0886 9.80463C19.0886 10.3442 19.0327 10.8651 18.9211 11.3674Z" fill="#FFB606"/>
<path d="M12.0004 6.04639C10.4004 6.04639 9.1167 7.34871 9.1167 8.93011C9.1167 10.5115 10.419 11.8138 12.0004 11.8138C13.5818 11.8138 14.8841 10.5301 14.8841 8.93011C14.8841 7.33011 13.6004 6.04639 12.0004 6.04639ZM12.0004 10.3069C11.2376 10.3069 10.6237 9.6929 10.6237 8.93011C10.6237 8.16732 11.2376 7.55336 12.0004 7.55336C12.7632 7.55336 13.3772 8.16732 13.3772 8.93011C13.3772 9.6929 12.7632 10.3069 12.0004 10.3069Z" fill="#FFB606"/>
</g>
<defs>
<clipPath id="clip0_1_349">
<rect width="24" height="24" fill="white"/>
</clipPath>
</defs>
</svg>
